<svg width="80" height="80" viewBox="0 0 80 80" fill="none" xmlns="http://www.w3.org/2000/svg">
<circle cx="40" cy="40" r="40" fill="#8241D1" fill-opacity="0.6"/>
<circle cx="40" cy="40" r="30" fill="url(#paint0_linear_414_673)"/>
<path d="M30.9969 38.9074L43.4572 26.4473C43.7454 26.1589 44.1301 26 44.5403 26C44.9506 26 45.3353 26.1589 45.6235 26.4473L46.5411 27.3647C47.1382 27.9625 47.1382 28.9341 46.5411 29.5309L36.0778 39.9942L46.5527 50.4691C46.8409 50.7575 47 51.142 47 51.552C47 51.9624 46.8409 52.3469 46.5527 52.6355L45.6351 53.5527C45.3466 53.8411 44.9622 54 44.552 54C44.1417 54 43.757 53.8411 43.4688 53.5527L30.9969 41.0812C30.708 40.7918 30.5493 40.4055 30.5502 39.9949C30.5493 39.5826 30.708 39.1965 30.9969 38.9074Z" fill="white"/>
<defs>
<linearGradient id="paint0_linear_414_673" x1="10" y1="15.5" x2="62.5" y2="64" gradientUnits="userSpaceOnUse">
<stop stop-color="#94BAFD"/>
<stop offset="0.526042" stop-color="#D466E1"/>
<stop offset="1" stop-color="#9B23F6"/>
</linearGradient>
</defs>
</svg>
