<svg width="80" height="80" viewBox="0 0 80 80" fill="none" xmlns="http://www.w3.org/2000/svg">
<path d="M65.9143 49.2818V71.4132L41.839 79.9999L17.7637 71.4132V49.2818L41.839 37.6152L65.9143 49.2818Z" fill="#ED4596"/>
<path d="M41.839 37.6152V79.9999L17.7637 71.4132V49.2818L41.839 37.6152Z" fill="#F777CE"/>
<path d="M12.9687 16.4763C12.2887 16.4763 11.7373 15.925 11.7373 15.2449V11.9819C11.7373 11.3019 12.2886 10.7505 12.9687 10.7505C13.6489 10.7505 14.2001 11.3017 14.2001 11.9819V15.245C14.2001 15.925 13.6487 16.4763 12.9687 16.4763Z" fill="#F9D366"/>
<path d="M12.9687 25.2614C12.2887 25.2614 11.7373 24.7102 11.7373 24.03V20.7671C11.7373 20.0871 12.2886 19.5356 12.9687 19.5356C13.6489 19.5356 14.2001 20.0869 14.2001 20.7671V24.0302C14.2001 24.71 13.6487 25.2614 12.9687 25.2614Z" fill="#F9D366"/>
<path d="M18.9926 19.2372H15.7295C15.0495 19.2372 14.498 18.686 14.498 18.0058C14.498 17.3257 15.0493 16.7744 15.7295 16.7744H18.9926C19.6726 16.7744 20.224 17.3257 20.224 18.0058C20.224 18.686 19.6726 19.2372 18.9926 19.2372Z" fill="#F9D366"/>
<path d="M10.2076 19.2372H6.94479C6.26479 19.2372 5.71338 18.686 5.71338 18.0058C5.71338 17.3257 6.26463 16.7744 6.94479 16.7744H10.2079C10.8879 16.7744 11.4393 17.3257 11.4393 18.0058C11.4393 18.686 10.8879 19.2372 10.2076 19.2372Z" fill="#F9D366"/>
<path d="M65.9143 37.6154L41.839 46.2019L17.7637 37.6154L41.839 29.0288L65.9143 37.6154Z" fill="#CEC1E8"/>
<path d="M41.839 29.0288V46.2019L17.7637 37.6154L41.839 29.0288Z" fill="#EDE6F5"/>
<path d="M74.2866 46.296L65.9138 37.6157L41.8386 46.2021L50.2113 54.8823L74.2866 46.296Z" fill="#EDE6F5"/>
<path d="M9.39062 46.2955L17.7633 37.6152L41.8386 46.2016L33.4658 54.8818L9.39062 46.2955Z" fill="#CEC1E8"/>
<path d="M65.6225 15.6202L67.9572 15.1469C69.0593 14.9235 69.0593 13.3483 67.9572 13.1249L65.6225 12.6516C63.3218 12.1852 61.5239 10.3871 61.0575 8.08662L60.5842 5.75193C60.3608 4.64975 58.7856 4.64975 58.5622 5.75193L58.0889 8.08662C57.6225 10.3872 55.8243 12.1852 53.5239 12.6516L51.1892 13.1249C50.087 13.3483 50.087 14.9235 51.1892 15.1469L53.5239 15.6202C55.8245 16.0866 57.6225 17.8847 58.0889 20.1852L58.5622 22.5199C58.7856 23.6221 60.3608 23.6221 60.5842 22.5199L61.0575 20.1852C61.5239 17.8846 63.322 16.0866 65.6225 15.6202Z" fill="#DD8833"/>
<path d="M40.2482 13.7252L43.2441 13.1177C44.6585 12.8308 44.6585 10.8095 43.2441 10.5227L40.2482 9.91516C37.2957 9.31656 34.9883 7.00922 34.3897 4.05672L33.7822 1.06078C33.4953 -0.353594 31.4739 -0.353594 31.1872 1.06078L30.5797 4.05672C29.9811 7.00922 27.6738 9.31656 24.7213 9.91516L21.7253 10.5227C20.311 10.8095 20.311 12.8308 21.7253 13.1177L24.7213 13.7252C27.6738 14.3238 29.9811 16.6311 30.5797 19.5836L31.1872 22.5795C31.4741 23.9939 33.4953 23.9939 33.7822 22.5795L34.3897 19.5836C34.9883 16.6311 37.2958 14.3238 40.2482 13.7252Z" fill="#CF8BFC"/>
<path d="M32.1772 38.6621C31.6911 38.6621 31.2301 38.3721 31.0359 37.894C27.9733 30.3551 20.8036 23.3638 20.7315 23.294C20.2429 22.8212 20.23 22.0417 20.7026 21.5531C21.1753 21.0643 21.9545 21.0512 22.4434 21.5237C22.7528 21.8226 30.0558 28.9384 33.3175 36.9673C33.5734 37.5973 33.27 38.3156 32.6401 38.5715C32.4886 38.6331 32.3315 38.6621 32.1772 38.6621Z" fill="#ED3561"/>
<path d="M37.7583 35.4607C37.0783 35.4607 36.5269 34.9094 36.5269 34.2293V22.9013C36.5269 22.2213 37.0781 21.6699 37.7583 21.6699C38.4384 21.6699 38.9897 22.2212 38.9897 22.9013V34.2293C38.9895 34.9093 38.4383 35.4607 37.7583 35.4607Z" fill="#F9D366"/>
<path d="M51.7815 38.6625C51.6272 38.6625 51.4703 38.6332 51.3186 38.5717C50.6886 38.3157 50.3851 37.5975 50.6412 36.9675C52.0148 33.5865 54.262 29.9601 57.3209 26.1892C57.749 25.661 58.5246 25.58 59.0528 26.0085C59.5809 26.4368 59.6617 27.2125 59.2334 27.7404C57.2359 30.2031 54.5196 33.9637 52.9228 37.8942C52.7286 38.3726 52.2679 38.6625 51.7815 38.6625Z" fill="#F9D366"/>
<path d="M46.2021 35.4609C46.1492 35.4609 46.0958 35.4574 46.0419 35.4505C45.3675 35.3629 44.8917 34.7452 44.9794 34.071L46.9625 18.8029C47.05 18.1287 47.6675 17.6527 48.342 17.7404C49.0164 17.828 49.4922 18.4457 49.4045 19.1199L47.4214 34.388C47.3411 35.0085 46.8116 35.4609 46.2021 35.4609Z" fill="#CF8BFC"/>
</svg>
