<svg width="10" height="16" viewBox="0 0 10 16" fill="none" xmlns="http://www.w3.org/2000/svg">
<path d="M0.255263 7.37568L7.37546 0.255608C7.54015 0.090796 7.75998 0 7.99439 0C8.22879 0 8.44863 0.090796 8.61331 0.255608L9.13766 0.779831C9.47886 1.12142 9.47886 1.6766 9.13766 2.01767L3.15865 7.99668L9.14429 13.9823C9.30898 14.1471 9.3999 14.3668 9.3999 14.6011C9.3999 14.8357 9.30898 15.0554 9.14429 15.2203L8.61994 15.7444C8.45513 15.9092 8.23542 16 8.00102 16C7.76662 16 7.54678 15.9092 7.3821 15.7444L0.255263 8.61782C0.0901915 8.45248 -0.000474116 8.23174 4.62051e-05 7.99707C-0.000474116 7.7615 0.0901915 7.54088 0.255263 7.37568Z" fill="white"/>
</svg>
