<svg width="10" height="10" viewBox="0 0 10 10" fill="none" xmlns="http://www.w3.org/2000/svg">
<g clip-path="url(#clip0_1_6393)">
<path d="M9.662 1.97062L6.63205 5.00087L9.662 8.03098C10.1127 8.48184 10.1127 9.21217 9.662 9.66303C9.43681 9.88822 9.14158 10.0009 8.84649 10.0009C8.55091 10.0009 8.25564 9.88839 8.03063 9.66303L5.00002 6.63258L1.96965 9.663C1.74449 9.88819 1.44922 10.0009 1.15387 10.0009C0.858611 10.0009 0.563548 9.88836 0.338189 9.663C-0.1125 9.21235 -0.1125 8.48198 0.338189 8.03095L3.36805 5.00084L0.338017 1.97062C-0.112672 1.51993 -0.112672 0.789423 0.338017 0.338734C0.78862 -0.111609 1.5187 -0.111609 1.96947 0.338734L4.99999 3.36899L8.03028 0.338734C8.48114 -0.111609 9.21131 -0.111609 9.66183 0.338734C10.1127 0.789423 10.1127 1.51993 9.662 1.97062Z" fill="white"/>
</g>
<defs>
<clipPath id="clip0_1_6393">
<rect width="10" height="10" fill="white"/>
</clipPath>
</defs>
</svg>
