<svg width="13" height="8" viewBox="0 0 13 8" fill="none" xmlns="http://www.w3.org/2000/svg">
<path d="M5.99274 7.79281L0.207681 2.00765C0.0737718 1.87385 0 1.69523 0 1.50478C0 1.31432 0.0737718 1.13571 0.207681 1.0019L0.633613 0.575864C0.911155 0.298639 1.36224 0.298639 1.63936 0.575864L6.4973 5.43381L11.3606 0.570474C11.4945 0.43667 11.6731 0.362793 11.8634 0.362793C12.054 0.362793 12.2325 0.43667 12.3665 0.570474L12.7923 0.996511C12.9262 1.13042 13 1.30893 13 1.49939C13 1.68984 12.9262 1.86846 12.7923 2.00226L7.00198 7.79281C6.86764 7.92693 6.68829 8.0006 6.49762 8.00018C6.30622 8.0006 6.12697 7.92693 5.99274 7.79281Z" fill="white"/>
</svg>
