<svg width="39" height="39" viewBox="0 0 39 39" fill="none" xmlns="http://www.w3.org/2000/svg">
<path d="M19.5 39C30.2696 39 39 30.2696 39 19.5C39 8.73045 30.2696 0 19.5 0C8.73045 0 0 8.73045 0 19.5C0 30.2696 8.73045 39 19.5 39Z" fill="#627EEA"/>
<path d="M20.1069 4.875V15.6853L29.2439 19.7681L20.1069 4.875Z" fill="white" fill-opacity="0.602"/>
<path d="M20.1069 4.875L10.9688 19.7681L20.1069 15.6853V4.875Z" fill="white"/>
<path d="M20.1069 26.7737V34.1191L29.25 21.4697L20.1069 26.7737Z" fill="white" fill-opacity="0.602"/>
<path d="M20.1069 34.1191V26.7725L10.9688 21.4697L20.1069 34.1191Z" fill="white"/>
<path d="M20.1069 25.0731L29.2439 19.7679L20.1069 15.6875V25.0731Z" fill="white" fill-opacity="0.2"/>
<path d="M10.9688 19.7679L20.1069 25.0731V15.6875L10.9688 19.7679Z" fill="white" fill-opacity="0.602"/>
</svg>
