<svg width="32" height="32" viewBox="0 0 32 32" fill="none" xmlns="http://www.w3.org/2000/svg">
<circle cx="16" cy="16" r="16" fill="#6562E6"/>
<path d="M23.4091 10.75C23.4091 10.75 21.4292 9.18025 19.0909 9L18.8802 9.427C20.9944 9.95112 21.9642 10.7023 22.9773 11.625C21.2306 10.7216 19.5059 9.875 16.5 9.875C13.4941 9.875 11.7694 10.7216 10.0227 11.625C11.0358 10.7023 12.1896 9.86844 14.1198 9.427L13.9091 9C11.4559 9.23494 9.59091 10.75 9.59091 10.75C9.59091 10.75 7.37957 13.9984 7 20.375C9.22905 22.9794 12.6136 23 12.6136 23L13.3214 22.0441C12.1201 21.621 10.7633 20.8654 9.59091 19.5C10.9891 20.5719 13.0994 21.6875 16.5 21.6875C19.9006 21.6875 22.0109 20.5719 23.4091 19.5C22.2367 20.8654 20.8799 21.621 19.6786 22.0441L20.3864 23C20.3864 23 23.771 22.9794 26 20.375C25.6204 13.9984 23.4091 10.75 23.4091 10.75ZM13.6932 18.625C12.8585 18.625 12.1818 17.8414 12.1818 16.875C12.1818 15.9086 12.8585 15.125 13.6932 15.125C14.5279 15.125 15.2045 15.9086 15.2045 16.875C15.2045 17.8414 14.5279 18.625 13.6932 18.625ZM19.3068 18.625C18.4721 18.625 17.7955 17.8414 17.7955 16.875C17.7955 15.9086 18.4721 15.125 19.3068 15.125C20.1415 15.125 20.8182 15.9086 20.8182 16.875C20.8182 17.8414 20.1415 18.625 19.3068 18.625Z" fill="white"/>
</svg>
