<svg width="32" height="33" viewBox="0 0 32 33" fill="none" xmlns="http://www.w3.org/2000/svg">
<g clip-path="url(#clip0_8_17)">
<rect x="6" y="7.60669" width="20" height="20.0763" fill="white"/>
<path d="M16 0.580078C7.16479 0.580078 0 7.77222 0 16.6411C0 25.5101 7.16479 32.7022 16 32.7022C24.8352 32.7022 32 25.5101 32 16.6411C32 7.77222 24.8352 0.580078 16 0.580078ZM23.3054 13.1028C23.3125 13.2609 23.3159 13.4197 23.3159 13.5792C23.3159 18.4505 19.6221 24.0678 12.8669 24.0681H12.8672H12.8669C10.793 24.0681 8.86304 23.4578 7.23779 22.4121C7.52515 22.4462 7.81763 22.4631 8.11377 22.4631C9.83447 22.4631 11.418 21.8739 12.675 20.8851C11.0674 20.8552 9.71191 19.7893 9.24414 18.3246C9.46802 18.3677 9.69824 18.3912 9.93433 18.3912C10.2695 18.3912 10.5942 18.3459 10.9028 18.2613C9.22241 17.9236 7.95654 16.4328 7.95654 14.6477C7.95654 14.6311 7.95654 14.6161 7.95703 14.6007C8.4519 14.8769 9.01782 15.043 9.62036 15.0617C8.63428 14.4012 7.98608 13.2721 7.98608 11.9931C7.98608 11.3177 8.16797 10.6849 8.4834 10.1401C10.2944 12.3708 13.001 13.8378 16.0532 13.9919C15.9902 13.7218 15.9578 13.4405 15.9578 13.1513C15.9578 11.1162 17.6025 9.46518 19.6306 9.46518C20.687 9.46518 21.6411 9.91342 22.3113 10.63C23.1479 10.4643 23.9336 10.1575 24.6433 9.73525C24.3687 10.5957 23.7866 11.3177 23.0283 11.7743C23.7712 11.685 24.4792 11.4873 25.1372 11.1937C24.6458 11.9331 24.0225 12.5825 23.3054 13.1028V13.1028Z" fill="#1D9BF0"/>
</g>
<defs>
<clipPath id="clip0_8_17">
<rect width="32" height="32.1221" fill="white" transform="translate(0 0.580078)"/>
</clipPath>
</defs>
</svg>
