<svg width="32" height="32" viewBox="0 0 32 32" fill="none" xmlns="http://www.w3.org/2000/svg">
<circle cx="16" cy="16" r="16" fill="#7E9AFB"/>
<path d="M16 6C10.4783 6 6 10.4783 6 16C6 21.5217 10.4783 26 16 26C21.5217 26 26 21.5217 26 16C26 10.4783 21.5217 6 16 6ZM16.8043 24.2174C16.7609 24.2174 16.7174 24.2174 16.6522 24.2391V19.5217C17.7826 19.5 18.8043 19.4783 19.7391 19.413C18.913 21.9565 17.3696 23.6522 16.8043 24.2174ZM15.1957 24.2174C14.6087 23.6304 13.087 21.9348 12.2609 19.413C13.1739 19.4783 14.2174 19.5217 15.3478 19.5217V24.2391C15.3043 24.2391 15.2609 24.2174 15.1957 24.2174ZM7.73913 16C7.73913 15.4565 7.80435 14.913 7.8913 14.3913C8.36957 14.3043 9.28261 14.1739 10.5652 14.0435C10.4565 14.6739 10.3913 15.3261 10.3913 16.0217C10.3913 16.7174 10.4565 17.3696 10.5435 17.9783C9.28261 17.8478 8.34783 17.7174 7.86957 17.6304C7.80435 17.087 7.73913 16.5435 7.73913 16ZM11.7174 16C11.7174 15.2609 11.8043 14.5652 11.9348 13.913C12.9348 13.8478 14.0652 13.7826 15.3478 13.7826V18.2174C14.087 18.1957 12.9348 18.1522 11.913 18.0652C11.8043 17.4348 11.7174 16.7391 11.7174 16ZM16.7826 7.78261C17.3696 8.36957 18.8696 10.1087 19.7174 12.587C18.8043 12.5217 17.7826 12.4783 16.6522 12.4783V7.76087C16.6957 7.76087 16.7391 7.78261 16.7826 7.78261ZM15.3478 7.76087V12.4783C14.2174 12.5 13.1957 12.5217 12.2826 12.587C13.1087 10.1087 14.6304 8.36957 15.1957 7.78261C15.2609 7.78261 15.3043 7.76087 15.3478 7.76087ZM16.6522 18.2174V13.7826C17.913 13.8043 19.0652 13.8478 20.0652 13.913C20.1957 14.5652 20.2826 15.2609 20.2826 16C20.2826 16.7391 20.2174 17.4348 20.087 18.087C19.087 18.1522 17.9348 18.1957 16.6522 18.2174ZM21.413 14.0435C22.6957 14.1739 23.6087 14.3043 24.087 14.3913C24.1957 14.913 24.2609 15.4565 24.2609 16C24.2609 16.5435 24.1957 17.087 24.1087 17.6087C23.6304 17.6957 22.7174 17.8261 21.4348 17.9565C21.5435 17.3261 21.587 16.6739 21.587 15.9783C21.587 15.3261 21.5217 14.6522 21.413 14.0435ZM23.6957 13C23.087 12.913 22.2174 12.8043 21.1087 12.6957C20.587 10.8261 19.6739 9.32609 18.913 8.26087C21.1087 9.08696 22.8478 10.8261 23.6957 13ZM13.087 8.26087C12.3043 9.30435 11.413 10.8043 10.8913 12.6739C9.80435 12.7609 8.93478 12.8913 8.30435 12.9783C9.15217 10.8261 10.913 9.08696 13.087 8.26087ZM8.30435 19C8.91304 19.087 9.78261 19.1957 10.8696 19.3043C11.3913 21.1739 12.2609 22.6739 13.0435 23.7174C10.8696 22.8696 9.15217 21.1522 8.30435 19ZM18.9565 23.7174C19.7391 22.6739 20.6087 21.1957 21.1304 19.3261C22.2174 19.2391 23.087 19.1087 23.6957 19.0217C22.8478 21.1522 21.1304 22.8696 18.9565 23.7174Z" fill="white"/>
</svg>
