<svg width="28" height="28" viewBox="0 0 28 28" fill="none" xmlns="http://www.w3.org/2000/svg">
<g clip-path="url(#clip0_1_6336)">
<path d="M14 28C21.732 28 28 21.732 28 14C28 6.26801 21.732 0 14 0C6.26801 0 0 6.26801 0 14C0 21.732 6.26801 28 14 28Z" fill="white"/>
<path d="M19.0456 10.888C18.7021 10.685 18.2557 10.685 17.878 10.888L15.1993 12.444L13.3792 13.4588L10.7006 15.0148C10.3572 15.2178 9.91079 15.2178 9.53304 15.0148L7.40389 13.797C7.06047 13.5941 6.82008 13.222 6.82008 12.8161V10.4144C6.82008 10.0085 7.02613 9.63637 7.40389 9.43341L9.49869 8.24947C9.84211 8.04651 10.2885 8.04651 10.6663 8.24947L12.7611 9.43341C13.1045 9.63637 13.3449 10.0085 13.3449 10.4144V11.9704L15.165 10.9218V9.36576C15.165 8.95983 14.959 8.58774 14.5812 8.38478L10.7006 6.15222C10.3572 5.94926 9.91079 5.94926 9.53304 6.15222L5.5838 8.38478C5.20605 8.58774 5 8.95983 5 9.36576V13.8647C5 14.2706 5.20605 14.6427 5.5838 14.8457L9.53304 17.0783C9.87645 17.2812 10.3229 17.2812 10.7006 17.0783L13.3792 15.556L15.1993 14.5074L17.878 12.9852C18.2214 12.7822 18.6678 12.7822 19.0456 12.9852L21.1404 14.1691C21.4837 14.3721 21.7241 14.7442 21.7241 15.1501V17.5518C21.7241 17.9578 21.5181 18.3298 21.1404 18.5328L19.0456 19.7506C18.7021 19.9535 18.2557 19.9535 17.878 19.7506L15.7832 18.5666C15.4397 18.3637 15.1993 17.9915 15.1993 17.5856V16.0296L13.3792 17.0783V18.6342C13.3792 19.0402 13.5853 19.4123 13.963 19.6152L17.9123 21.8478C18.2557 22.0507 18.7021 22.0507 19.0799 21.8478L23.0292 19.6152C23.3725 19.4123 23.6129 19.0402 23.6129 18.6342V14.1353C23.6129 13.7294 23.4069 13.3573 23.0292 13.1544L19.0456 10.888Z" fill="#8247E5"/>
</g>
<defs>
<clipPath id="clip0_1_6336">
<rect width="28" height="28" fill="white"/>
</clipPath>
</defs>
</svg>
