<svg width="174" height="32" viewBox="0 0 174 32" fill="none" xmlns="http://www.w3.org/2000/svg">
<path d="M167 2H93C89.134 2 86 5.13401 86 9V23C86 26.866 89.134 30 93 30H167C170.866 30 174 26.866 174 23V9C174 5.13401 170.866 2 167 2Z" fill="url(#paint0_linear_926_3)"/>
<path d="M93.121 9.55223C94.785 7.87223 96.801 7.03223 99.169 7.03223C101.537 7.03223 103.553 7.87223 105.217 9.55223C106.897 11.2162 107.737 13.2322 107.737 15.6002C107.737 17.9682 106.897 19.9922 105.217 21.6722C103.553 23.3362 101.537 24.1682 99.169 24.1682C96.801 24.1682 94.785 23.3362 93.121 21.6722C91.457 19.9922 90.625 17.9682 90.625 15.6002C90.625 13.2322 91.457 11.2162 93.121 9.55223ZM102.913 11.6882C101.905 10.6642 100.657 10.1522 99.169 10.1522C97.681 10.1522 96.433 10.6642 95.425 11.6882C94.433 12.7122 93.937 14.0162 93.937 15.6002C93.937 17.2002 94.433 18.5122 95.425 19.5362C96.433 20.5442 97.681 21.0482 99.169 21.0482C100.673 21.0482 101.921 20.5442 102.913 19.5362C103.921 18.5122 104.425 17.2002 104.425 15.6002C104.425 14.0162 103.921 12.7122 102.913 11.6882ZM116.595 11.8562C118.515 11.8562 120.091 12.5922 121.323 14.0642L119.499 16.0322C118.619 15.2162 117.651 14.8082 116.595 14.8082C115.747 14.8082 115.019 15.1042 114.411 15.6962C113.803 16.2882 113.499 17.0562 113.499 18.0002C113.499 18.9442 113.803 19.7122 114.411 20.3042C115.019 20.8962 115.747 21.1922 116.595 21.1922C117.651 21.1922 118.619 20.7842 119.499 19.9682L121.323 21.9362C120.091 23.4082 118.515 24.1442 116.595 24.1442C114.883 24.1442 113.427 23.5442 112.227 22.3442C111.043 21.1442 110.451 19.6962 110.451 18.0002C110.451 16.3042 111.043 14.8562 112.227 13.6562C113.427 12.4562 114.883 11.8562 116.595 11.8562ZM129.906 11.8322C132.45 11.8322 134.21 12.9122 135.186 15.0722C135.426 15.6002 135.562 16.2402 135.594 16.9922C135.626 17.7282 135.554 18.3442 135.378 18.8402H127.002C127.002 19.6242 127.282 20.2402 127.842 20.6882C128.418 21.1362 129.13 21.3602 129.978 21.3602C131.306 21.3602 132.514 21.0802 133.602 20.5202L135.21 22.2722C133.53 23.5202 131.786 24.1442 129.978 24.1442C128.17 24.1442 126.698 23.5682 125.562 22.4162C124.426 21.2482 123.858 19.7762 123.858 18.0002C123.858 16.2402 124.41 14.7762 125.514 13.6082C126.618 12.4242 128.082 11.8322 129.906 11.8322ZM129.906 14.6162C129.122 14.6162 128.466 14.8482 127.938 15.3122C127.426 15.7762 127.154 16.3122 127.122 16.9202H132.618C132.618 16.5682 132.522 16.2482 132.33 15.9602C131.85 15.0642 131.042 14.6162 129.906 14.6162ZM150.18 24.0002H148.14L147.972 22.2962C146.996 23.5282 145.668 24.1442 143.988 24.1442C142.308 24.1442 140.908 23.5522 139.788 22.3682C138.684 21.1842 138.132 19.7282 138.132 18.0002C138.132 16.2722 138.684 14.8162 139.788 13.6322C140.908 12.4322 142.308 11.8322 143.988 11.8322C145.668 11.8322 146.996 12.4562 147.972 13.7042L148.14 12.0002H150.18V24.0002ZM144.276 21.1922C145.108 21.1922 145.828 20.8962 146.436 20.3042C147.06 19.7122 147.372 18.9442 147.372 18.0002C147.372 17.0562 147.06 16.2882 146.436 15.6962C145.828 15.0882 145.108 14.7842 144.276 14.7842C143.444 14.7842 142.716 15.0882 142.092 15.6962C141.484 16.2882 141.18 17.0562 141.18 18.0002C141.18 18.9442 141.484 19.7122 142.092 20.3042C142.7 20.8962 143.428 21.1922 144.276 21.1922ZM160.657 11.8322C162.353 11.8322 163.649 12.3602 164.545 13.4162C165.441 14.4562 165.889 15.8722 165.889 17.6642V24.0002H162.841V17.8562C162.841 15.8082 161.953 14.7842 160.177 14.7842C159.265 14.7842 158.561 15.0642 158.065 15.6242C157.569 16.1682 157.321 17.0002 157.321 18.1202V24.0002H154.273V12.0002H156.313L156.529 13.8722C157.361 12.5122 158.737 11.8322 160.657 11.8322Z" fill="white"/>
<path d="M6.71613 9.552C8.38013 7.872 10.3961 7.032 12.7641 7.032C15.1321 7.032 17.1481 7.872 18.8121 9.552C20.4921 11.216 21.3321 13.232 21.3321 15.6C21.3321 17.968 20.4921 19.992 18.8121 21.672C17.1481 23.336 15.1321 24.168 12.7641 24.168C10.3961 24.168 8.38013 23.336 6.71613 21.672C5.05213 19.992 4.22013 17.968 4.22013 15.6C4.22013 13.232 5.05213 11.216 6.71613 9.552ZM16.5081 11.688C15.5001 10.664 14.2521 10.152 12.7641 10.152C11.2761 10.152 10.0281 10.664 9.02013 11.688C8.02813 12.712 7.53213 14.016 7.53213 15.6C7.53213 17.2 8.02813 18.512 9.02013 19.536C10.0281 20.544 11.2761 21.048 12.7641 21.048C14.2681 21.048 15.5161 20.544 16.5081 19.536C17.5161 18.512 18.0201 17.2 18.0201 15.6C18.0201 14.016 17.5161 12.712 16.5081 11.688ZM31.1506 11.832C32.8466 11.832 34.1426 12.36 35.0386 13.416C35.9346 14.456 36.3826 15.872 36.3826 17.664V24H33.3346V17.856C33.3346 15.808 32.4466 14.784 30.6706 14.784C29.7586 14.784 29.0546 15.064 28.5586 15.624C28.0626 16.168 27.8146 17 27.8146 18.12V24H24.7666V12H26.8066L27.0226 13.872C27.8546 12.512 29.2306 11.832 31.1506 11.832ZM40.4959 24V7.2H43.5679V24H40.4959ZM49.4438 10.92C48.9478 10.92 48.5238 10.768 48.1718 10.464C47.8358 10.16 47.6678 9.784 47.6678 9.336C47.6678 8.888 47.8358 8.512 48.1718 8.208C48.5238 7.904 48.9478 7.752 49.4438 7.752C49.9558 7.752 50.3798 7.904 50.7158 8.208C51.0678 8.512 51.2438 8.888 51.2438 9.336C51.2438 9.784 51.0678 10.16 50.7158 10.464C50.3798 10.768 49.9558 10.92 49.4438 10.92ZM47.9318 24V12H50.9798V24H47.9318ZM61.7131 11.832C63.4091 11.832 64.7051 12.36 65.6011 13.416C66.4971 14.456 66.9451 15.872 66.9451 17.664V24H63.8971V17.856C63.8971 15.808 63.0091 14.784 61.2331 14.784C60.3211 14.784 59.6171 15.064 59.1211 15.624C58.6251 16.168 58.3771 17 58.3771 18.12V24H55.3291V12H57.3691L57.5851 13.872C58.4171 12.512 59.7931 11.832 61.7131 11.832ZM76.2664 11.832C78.8104 11.832 80.5704 12.912 81.5464 15.072C81.7864 15.6 81.9224 16.24 81.9544 16.992C81.9864 17.728 81.9144 18.344 81.7384 18.84H73.3624C73.3624 19.624 73.6424 20.24 74.2024 20.688C74.7784 21.136 75.4904 21.36 76.3384 21.36C77.6664 21.36 78.8744 21.08 79.9624 20.52L81.5704 22.272C79.8904 23.52 78.1464 24.144 76.3384 24.144C74.5304 24.144 73.0584 23.568 71.9224 22.416C70.7864 21.248 70.2184 19.776 70.2184 18C70.2184 16.24 70.7704 14.776 71.8744 13.608C72.9784 12.424 74.4424 11.832 76.2664 11.832ZM76.2664 14.616C75.4824 14.616 74.8264 14.848 74.2984 15.312C73.7864 15.776 73.5144 16.312 73.4824 16.92H78.9784C78.9784 16.568 78.8824 16.248 78.6904 15.96C78.2104 15.064 77.4024 14.616 76.2664 14.616Z" fill="white"/>
<defs>
<linearGradient id="paint0_linear_926_3" x1="86" y1="16" x2="174" y2="16" gradientUnits="userSpaceOnUse">
<stop stop-color="#95B0FD"/>
<stop offset="1" stop-color="#E929F8"/>
</linearGradient>
</defs>
</svg>
