<svg width="139" height="29" viewBox="0 0 139 29" fill="none" xmlns="http://www.w3.org/2000/svg">
<rect x="51" y="1" width="88" height="28" rx="7" fill="url(#paint0_linear_1_5523)"/>
<path d="M7.848 19.88H9.864V23H2.52V19.88H4.536V9.32H2.52V6.2H9.864V9.32H7.848V19.88ZM21.6079 6.032C24.1039 6.032 26.2159 6.96 27.9439 8.816L25.7839 10.808C24.6479 9.704 23.2559 9.152 21.6079 9.152C20.1199 9.152 18.8719 9.664 17.8639 10.688C16.8719 11.712 16.3759 13.016 16.3759 14.6C16.3759 16.2 16.8719 17.512 17.8639 18.536C18.8719 19.544 20.1199 20.048 21.6079 20.048C23.2879 20.048 24.6799 19.496 25.7839 18.392L27.9439 20.384C26.2159 22.24 24.1039 23.168 21.6079 23.168C19.2399 23.168 17.2239 22.336 15.5599 20.672C13.8959 18.992 13.0639 16.968 13.0639 14.6C13.0639 12.232 13.8959 10.216 15.5599 8.552C17.2239 6.872 19.2399 6.032 21.6079 6.032ZM31.7466 6.2H37.2666C39.5706 6.2 41.3946 6.808 42.7386 8.024C44.0826 9.224 44.7546 10.768 44.7546 12.656C44.7546 14.56 44.0826 16.12 42.7386 17.336C41.3946 18.536 39.5706 19.136 37.2666 19.136H35.0586V23H31.7466V6.2ZM35.0586 16.016H37.5306C38.6986 16.016 39.6666 15.736 40.4346 15.176C41.2186 14.616 41.6106 13.776 41.6106 12.656C41.6106 11.584 41.2186 10.76 40.4346 10.184C39.6506 9.608 38.6826 9.32 37.5306 9.32H35.0586V16.016ZM58.1224 8.552C59.7864 6.872 61.8024 6.032 64.1704 6.032C66.5384 6.032 68.5544 6.872 70.2184 8.552C71.8984 10.216 72.7384 12.232 72.7384 14.6C72.7384 16.968 71.8984 18.992 70.2184 20.672C68.5544 22.336 66.5384 23.168 64.1704 23.168C61.8024 23.168 59.7864 22.336 58.1224 20.672C56.4584 18.992 55.6264 16.968 55.6264 14.6C55.6264 12.232 56.4584 10.216 58.1224 8.552ZM67.9144 10.688C66.9064 9.664 65.6584 9.152 64.1704 9.152C62.6824 9.152 61.4344 9.664 60.4264 10.688C59.4344 11.712 58.9384 13.016 58.9384 14.6C58.9384 16.2 59.4344 17.512 60.4264 18.536C61.4344 19.544 62.6824 20.048 64.1704 20.048C65.6744 20.048 66.9224 19.544 67.9144 18.536C68.9224 17.512 69.4264 16.2 69.4264 14.6C69.4264 13.016 68.9224 11.712 67.9144 10.688ZM81.5968 10.856C83.5168 10.856 85.0928 11.592 86.3248 13.064L84.5008 15.032C83.6208 14.216 82.6528 13.808 81.5968 13.808C80.7488 13.808 80.0208 14.104 79.4128 14.696C78.8048 15.288 78.5008 16.056 78.5008 17C78.5008 17.944 78.8048 18.712 79.4128 19.304C80.0208 19.896 80.7488 20.192 81.5968 20.192C82.6528 20.192 83.6208 19.784 84.5008 18.968L86.3248 20.936C85.0928 22.408 83.5168 23.144 81.5968 23.144C79.8848 23.144 78.4288 22.544 77.2288 21.344C76.0448 20.144 75.4528 18.696 75.4528 17C75.4528 15.304 76.0448 13.856 77.2288 12.656C78.4288 11.456 79.8848 10.856 81.5968 10.856ZM94.9071 10.832C97.4511 10.832 99.2111 11.912 100.187 14.072C100.427 14.6 100.563 15.24 100.595 15.992C100.627 16.728 100.555 17.344 100.379 17.84H92.0031C92.0031 18.624 92.2831 19.24 92.8431 19.688C93.4191 20.136 94.1311 20.36 94.9791 20.36C96.3071 20.36 97.5151 20.08 98.6031 19.52L100.211 21.272C98.5311 22.52 96.7871 23.144 94.9791 23.144C93.1711 23.144 91.6991 22.568 90.5631 21.416C89.4271 20.248 88.8591 18.776 88.8591 17C88.8591 15.24 89.4111 13.776 90.5151 12.608C91.6191 11.424 93.0831 10.832 94.9071 10.832ZM94.9071 13.616C94.1231 13.616 93.4671 13.848 92.9391 14.312C92.4271 14.776 92.1551 15.312 92.1231 15.92H97.6191C97.6191 15.568 97.5231 15.248 97.3311 14.96C96.8511 14.064 96.0431 13.616 94.9071 13.616ZM115.181 23H113.141L112.973 21.296C111.997 22.528 110.669 23.144 108.989 23.144C107.309 23.144 105.909 22.552 104.789 21.368C103.685 20.184 103.133 18.728 103.133 17C103.133 15.272 103.685 13.816 104.789 12.632C105.909 11.432 107.309 10.832 108.989 10.832C110.669 10.832 111.997 11.456 112.973 12.704L113.141 11H115.181V23ZM109.277 20.192C110.109 20.192 110.829 19.896 111.437 19.304C112.061 18.712 112.373 17.944 112.373 17C112.373 16.056 112.061 15.288 111.437 14.696C110.829 14.088 110.109 13.784 109.277 13.784C108.445 13.784 107.717 14.088 107.093 14.696C106.485 15.288 106.181 16.056 106.181 17C106.181 17.944 106.485 18.712 107.093 19.304C107.701 19.896 108.429 20.192 109.277 20.192ZM125.658 10.832C127.354 10.832 128.65 11.36 129.546 12.416C130.442 13.456 130.89 14.872 130.89 16.664V23H127.842V16.856C127.842 14.808 126.954 13.784 125.178 13.784C124.266 13.784 123.562 14.064 123.066 14.624C122.57 15.168 122.322 16 122.322 17.12V23H119.274V11H121.314L121.53 12.872C122.362 11.512 123.738 10.832 125.658 10.832Z" fill="white"/>
<defs>
<linearGradient id="paint0_linear_1_5523" x1="51" y1="15" x2="139" y2="15" gradientUnits="userSpaceOnUse">
<stop stop-color="#95B0FD"/>
<stop offset="1" stop-color="#E929F8"/>
</linearGradient>
</defs>
</svg>
