<svg width="46" height="39" viewBox="0 0 46 39" fill="none" xmlns="http://www.w3.org/2000/svg">
<path d="M34.1638 11.8892C33.3284 11.3956 32.2425 11.3956 31.3238 11.8892L24.8083 15.6741L20.3813 18.1425L13.866 21.9272C13.0307 22.4209 11.9448 22.4209 11.026 21.9272L5.8471 18.9651C5.0118 18.4715 4.42709 17.5665 4.42709 16.5791V10.7373C4.42709 9.74999 4.92827 8.84493 5.8471 8.35126L10.9424 5.47152C11.7777 4.97785 12.8636 4.97785 13.7824 5.47152L18.8778 8.35126C19.713 8.84493 20.2978 9.74999 20.2978 10.7373V14.5222L24.7249 11.9715V8.18672C24.7249 7.19936 24.2238 6.2943 23.3049 5.80063L13.866 0.370253C13.0307 -0.123418 11.9448 -0.123418 11.026 0.370253L1.42001 5.80063C0.50118 6.2943 0 7.19936 0 8.18672V19.1298C0 20.1171 0.50118 21.0222 1.42001 21.5159L11.026 26.9462C11.8612 27.4399 12.9472 27.4399 13.866 26.9462L20.3813 23.2437L24.8083 20.6931L31.3238 16.9905C32.159 16.4968 33.2449 16.4968 34.1638 16.9905L39.2591 19.8703C40.0943 20.3639 40.6791 21.2691 40.6791 22.2564V28.098C40.6791 29.0855 40.178 29.9905 39.2591 30.4841L34.1638 33.4462C33.3284 33.9399 32.2425 33.9399 31.3238 33.4462L26.2285 30.5665C25.3931 30.0728 24.8083 29.1677 24.8083 28.1804V24.3956L20.3813 26.9462V30.731C20.3813 31.7183 20.8825 32.6234 21.8012 33.1171L31.4073 38.5474C32.2425 39.0411 33.3284 39.0411 34.2473 38.5474L43.8533 33.1171C44.6885 32.6234 45.2733 31.7183 45.2733 30.731V19.7879C45.2733 18.8006 44.772 17.8956 43.8533 17.402L34.1638 11.8892Z" fill="#8247E5"/>
</svg>
