<svg width="14" height="14" viewBox="0 0 14 14" fill="none" xmlns="http://www.w3.org/2000/svg">
<g clip-path="url(#clip0_1_8790)">
<path d="M0.223294 6.45372L6.45347 0.223657C6.59757 0.0794465 6.78992 0 6.99503 0C7.20013 0 7.39249 0.0794465 7.53658 0.223657L7.99539 0.682352C8.29394 0.981244 8.29394 1.46703 7.99539 1.76547L2.76376 6.9971L8.0012 12.2345C8.14529 12.3787 8.22485 12.571 8.22485 12.776C8.22485 12.9812 8.14529 13.1734 8.0012 13.3178L7.54239 13.7763C7.39818 13.9206 7.20594 14 7.00083 14C6.79573 14 6.60337 13.9206 6.45927 13.7763L0.223294 7.54059C0.0788565 7.39592 -0.000475883 7.20277 -2.09808e-05 6.99744C-0.000475883 6.79131 0.0788565 6.59827 0.223294 6.45372Z" fill="#D4D4D4"/>
</g>
<defs>
<clipPath id="clip0_1_8790">
<rect width="14" height="14" fill="white" transform="matrix(-1 0 0 1 14 0)"/>
</clipPath>
</defs>
</svg>
