<svg width="20" height="20" viewBox="0 0 20 20" fill="none" xmlns="http://www.w3.org/2000/svg">
<g clip-path="url(#clip0_8_494)">
<path d="M13.3566 2.28876C10.3056 -0.762268 5.33978 -0.762268 2.28875 2.28876C-0.761615 5.34045 -0.761615 10.3056 2.28875 13.3572C5.00577 16.0736 9.23739 16.3646 12.2864 14.2435C12.3506 14.5471 12.4974 14.8368 12.7335 15.0729L17.1768 19.5162C17.8243 20.1624 18.8706 20.1624 19.5148 19.5162C20.1617 18.8693 20.1617 17.823 19.5148 17.1781L15.0716 12.7335C14.8368 12.4994 14.5464 12.3519 14.2429 12.2878C16.3653 9.23806 16.0743 5.0071 13.3566 2.28876ZM11.9538 11.9544C9.6759 14.2323 5.96877 14.2323 3.69157 11.9544C1.41504 9.67657 1.41504 5.9701 3.69157 3.69224C5.96877 1.41505 9.6759 1.41505 11.9538 3.69224C14.2316 5.9701 14.2316 9.67657 11.9538 11.9544Z" fill="#5B5762"/>
</g>
<defs>
<clipPath id="clip0_8_494">
<rect width="20" height="20" fill="white"/>
</clipPath>
</defs>
</svg>
