<svg width="45" height="43" viewBox="0 0 45 43" fill="none" xmlns="http://www.w3.org/2000/svg">
<path fill-rule="evenodd" clip-rule="evenodd" d="M7.72895 32.7875C7.87276 32.6221 8.04653 32.4893 8.23983 32.3969C8.43313 32.3046 8.642 32.2546 8.85394 32.25H44.2008C44.3505 32.2522 44.4961 32.3003 44.6205 32.3884C44.745 32.4765 44.8429 32.6009 44.9023 32.7467C44.9618 32.8924 44.9804 33.0532 44.9555 33.2099C44.931 33.3665 44.8644 33.5123 44.7635 33.6296L37.271 42.4625C37.1272 42.6279 36.9535 42.7607 36.7601 42.8531C36.5668 42.9454 36.358 42.9954 36.146 43H0.776556C0.627004 42.9978 0.48124 42.9497 0.356801 42.8616C0.232367 42.7735 0.134556 42.6491 0.075136 42.5033C0.0157158 42.3576 -0.00278319 42.1968 0.0218624 42.0401C0.046508 41.8835 0.113252 41.7377 0.214066 41.6204L7.72895 32.7875ZM44.7973 25.4655C44.8981 25.5828 44.9648 25.7286 44.9892 25.8852C45.0141 26.0419 44.9956 26.2027 44.9361 26.3485C44.8766 26.4942 44.7787 26.6186 44.6543 26.7067C44.5298 26.7948 44.3843 26.8429 44.2345 26.8451L8.87643 26.875C8.66453 26.8704 8.45562 26.8204 8.26231 26.7281C8.06901 26.6357 7.89525 26.5029 7.75147 26.3375L0.202815 17.5345C0.102005 17.4172 0.0352609 17.2714 0.0106112 17.1148C-0.0140344 16.9581 0.00446456 16.7973 0.0638848 16.6515C0.123305 16.5058 0.221115 16.3814 0.345554 16.2933C0.469988 16.2052 0.615752 16.1571 0.765309 16.1549L36.1235 16.125C36.3355 16.1296 36.5444 16.1796 36.7377 16.2719C36.931 16.3643 37.1047 16.4971 37.2485 16.6625L44.7973 25.4655ZM7.72895 0.5375C7.87276 0.372137 8.04653 0.239297 8.23983 0.146937C8.43313 0.0545782 8.642 0.00460073 8.85394 0L44.2236 0.0298611C44.3729 0.0320975 44.5189 0.0801623 44.6433 0.168274C44.7678 0.256385 44.8656 0.380791 44.9247 0.526526C44.9842 0.672265 45.0027 0.833125 44.9783 0.989757C44.9534 1.14639 44.8867 1.29213 44.7859 1.40945L37.271 10.2125C37.1272 10.3779 36.9535 10.5107 36.7601 10.6031C36.5668 10.6954 36.358 10.7454 36.146 10.75H0.776556C0.627004 10.7478 0.48124 10.6997 0.356801 10.6116C0.232367 10.5235 0.134556 10.3991 0.075136 10.2533C0.0157158 10.1076 -0.00278319 9.94675 0.0218624 9.79011C0.046508 9.63348 0.113252 9.48773 0.214066 9.37042L7.72895 0.5375Z" fill="url(#paint0_linear_414_593)"/>
<defs>
<linearGradient id="paint0_linear_414_593" x1="1.36717" y1="43.9376" x2="46.1622" y2="1.74776" gradientUnits="userSpaceOnUse">
<stop stop-color="#9945FF"/>
<stop offset="0.14" stop-color="#8A53F4"/>
<stop offset="0.42" stop-color="#6377D6"/>
<stop offset="0.79" stop-color="#24B0A7"/>
<stop offset="0.99" stop-color="#00D18C"/>
<stop offset="1" stop-color="#00D18C"/>
</linearGradient>
</defs>
</svg>
