<svg width="46" height="38" viewBox="0 0 46 38" fill="none" xmlns="http://www.w3.org/2000/svg">
<g clip-path="url(#clip0_414_604)">
<path d="M41.0663 0H45.8884L26.3108 22.7344C25.804 23.2982 25.7895 24.1972 26.2818 24.7762L37.5766 38.1244H32.5374L22.097 25.7515L21.5757 25.081C21.0834 24.502 21.0978 23.6029 21.6047 23.0392L41.0663 0Z" fill="#17B5CB"/>
<path d="M30.1916 24.7918C29.873 24.4108 29.7572 23.8928 29.873 23.4204C29.9599 23.1613 30.1481 22.8718 30.3219 22.6738L31.6251 21.2109L46.0043 38.1247H41.4285C41.4285 38.1247 33.0008 28.1288 30.1916 24.7918Z" fill="#17B5CB"/>
<path d="M5.02472 38.1244H0L15.4072 19.9917C15.8995 19.4126 15.8995 18.5441 15.4072 17.9803L0.115844 0H4.95231L20.3305 18.1327C20.7215 18.666 20.7939 19.4431 20.374 19.9459C16.3484 24.6848 5.02472 38.1244 5.02472 38.1244Z" fill="#17B5CB"/>
<path d="M13.4524 0H8.8042L23.0529 16.7765C23.0529 16.7765 23.0964 16.7461 24.6892 14.8414C25.1236 14.3233 25.2105 13.6833 24.7327 13.1957C21.7352 10.072 13.4524 0 13.4524 0Z" fill="#17B5CB"/>
<path d="M27.3247 11.7024L37.2148 0H32.5376L27.3681 6.1255L25.8766 7.89304C25.3698 8.45685 25.3554 9.3406 25.8477 9.93488C26.2242 10.3768 27.3247 11.7024 27.3247 11.7024Z" fill="#17B5CB"/>
<path d="M18.7378 26.4219L8.84766 38.1243H13.5248L18.6943 31.9988L20.1858 30.2313C20.6926 29.6675 20.7071 28.7837 20.2148 28.1894C19.8383 27.7475 18.7378 26.4219 18.7378 26.4219Z" fill="#17B5CB"/>
</g>
<defs>
<clipPath id="clip0_414_604">
<rect width="46" height="38" fill="white"/>
</clipPath>
</defs>
</svg>
