<svg width="80" height="80" viewBox="0 0 80 80" fill="none" xmlns="http://www.w3.org/2000/svg">
<circle cx="40" cy="40" r="40" fill="#8241D1" fill-opacity="0.6"/>
<circle cx="40" cy="40" r="30" fill="url(#paint0_linear_414_673)"/>
<path d="M50.5534 41.0926L38.0931 53.5527C37.8049 53.8411 37.4202 54 37.0099 54C36.5997 54 36.215 53.8411 35.9268 53.5527L35.0092 52.6353C34.4121 52.0375 34.4121 51.0659 35.0092 50.4691L45.4725 40.0058L34.9976 29.5309C34.7094 29.2425 34.5503 28.858 34.5503 28.448C34.5503 28.0376 34.7094 27.6531 34.9976 27.3645L35.9152 26.4473C36.2036 26.1589 36.5881 26 36.9983 26C37.4085 26 37.7933 26.1589 38.0815 26.4473L50.5534 38.9188C50.8423 39.2082 51.001 39.5945 51 40.0051C51.001 40.4174 50.8423 40.8035 50.5534 41.0926Z" fill="white"/>
<defs>
<linearGradient id="paint0_linear_414_673" x1="10" y1="15.5" x2="62.5" y2="64" gradientUnits="userSpaceOnUse">
<stop stop-color="#94BAFD"/>
<stop offset="0.526042" stop-color="#D466E1"/>
<stop offset="1" stop-color="#9B23F6"/>
</linearGradient>
</defs>
</svg>
