<svg width="28" height="28" viewBox="0 0 28 28" fill="none" xmlns="http://www.w3.org/2000/svg">
<path d="M20.4257 8.95822C19.8422 8.32117 18.9351 7.46132 18.5491 9.40283C18.4179 10.063 18.1112 10.5718 17.8485 10.9816C17.5652 9.54808 16.7131 8.06435 15.9102 7.06396C15.6097 6.68967 14.5436 5.20179 14.3388 2.71264C14.3083 2.34114 13.867 2.16669 13.591 2.41727C10.9533 4.81171 9.5055 8.10488 9.45175 11.8123C9.45175 11.8123 8.3534 10.8865 7.75671 9.16417C7.59603 8.70037 6.97424 8.61189 6.70446 9.02199C6.65267 9.10074 6.60466 9.1796 6.56135 9.25616C4.52626 12.8546 3.5473 17.2244 4.45232 21.2899C5.96553 28.0983 15.9752 30.0018 21.2744 25.7225C26.459 21.5359 24.8109 13.7435 20.4257 8.95822Z" fill="#ED694A"/>
<path d="M5.8608 21.7173C4.96628 17.6084 5.91313 13.196 7.90042 9.54126C7.85017 9.42002 7.80182 9.29462 7.75665 9.16425C7.59598 8.70044 6.97418 8.61196 6.70441 9.02206C6.65262 9.10081 6.60466 9.17967 6.56135 9.25623C4.52626 12.8547 3.5473 17.2245 4.45232 21.2899C5.14253 24.3954 7.60063 26.4798 10.5729 27.4231C8.2542 26.2999 6.43835 24.3744 5.8608 21.7173Z" fill="#D8553A"/>
<path d="M10.8671 11.7439C10.977 8.37918 12.194 5.36207 14.3722 3.0443C14.3572 2.91666 14.3461 2.80253 14.339 2.7159C14.3077 2.34124 13.8826 2.15333 13.6078 2.40172C11.0602 4.70505 9.50739 7.96492 9.45166 11.8121L9.92848 12.1824C10.1633 12.3647 10.4815 12.3568 10.7058 12.1897C10.8396 12.0763 10.8588 11.9052 10.8671 11.7439Z" fill="#D8553A"/>
<path d="M18.8256 13.9357C18.3946 13.4651 17.7245 12.83 17.4395 14.2641C17.3426 14.7516 17.116 15.1275 16.9221 15.4302C16.7129 14.3713 16.0834 13.2754 15.4904 12.5365C15.2685 12.2601 14.4811 11.1611 14.3298 9.32249C14.3072 9.04807 13.9813 8.91928 13.7774 9.10434C11.8292 10.8729 10.7598 13.3054 10.7201 16.0437C10.7201 16.0437 9.90882 15.3599 9.46815 14.0877C9.34948 13.7452 8.89016 13.6798 8.69093 13.9827C8.65271 14.0409 8.61721 14.0992 8.58522 14.1557C7.08203 16.8136 6.35895 20.0412 7.02739 23.0441C8.1451 28.0729 15.5384 29.4789 19.4525 26.3181C23.2819 23.2258 22.0647 17.4702 18.8256 13.9357Z" fill="#F4A32C"/>
<path d="M8.42143 23.4386C7.8296 20.5032 8.4426 17.3535 9.74224 14.7306C9.6432 14.5367 9.54936 14.3223 9.4681 14.0878C9.34942 13.7453 8.8901 13.6799 8.69088 13.9828C8.65265 14.0409 8.61716 14.0992 8.58517 14.1558C7.08203 16.8137 6.359 20.0413 7.02734 23.0441C7.5472 25.383 9.42467 26.9377 11.678 27.6142C10.077 26.8113 8.81649 25.4007 8.42143 23.4386Z" fill="#E89528"/>
<path d="M17.365 18.4787C17.0733 18.1602 16.6196 17.7302 16.4266 18.701C16.3611 19.0311 16.2077 19.2855 16.0763 19.4903C15.9347 18.7735 15.5087 18.0317 15.1071 17.5315C14.957 17.3444 14.4239 16.6005 14.3215 15.3558C14.3061 15.1701 14.0856 15.0828 13.9476 15.2082C12.6287 16.4054 11.9048 18.052 11.878 19.9057C11.878 19.9057 11.3287 19.4427 11.0305 18.5816C10.9501 18.3498 10.6392 18.3055 10.5044 18.5105C10.4784 18.5499 10.4545 18.5893 10.4328 18.6276C9.41526 20.4268 8.92576 22.6117 9.37824 24.6445C10.1348 28.0488 15.1397 29.0005 17.7892 26.8608C18.6966 26.1281 19.2591 25.0957 19.3732 23.9536C19.5454 22.2239 18.8797 20.1316 17.365 18.4787Z" fill="#F4D44E"/>
<path d="M16.0097 22.6956C15.8471 22.5182 15.5944 22.2786 15.4869 22.8195C15.4504 23.0034 15.365 23.1451 15.2917 23.2593C15.2128 22.8599 14.9755 22.4466 14.7518 22.168C14.6681 22.0637 14.3711 21.6492 14.314 20.9558C14.3055 20.8523 14.1826 20.8038 14.1057 20.8735C13.371 21.5405 12.9676 22.4579 12.9527 23.4906C12.9527 23.4906 12.6467 23.2327 12.4805 22.753C12.4357 22.6237 12.2625 22.5991 12.1874 22.7134C12.173 22.7353 12.1597 22.7573 12.1476 22.7786C11.5807 23.781 11.308 24.9983 11.5601 26.1308C12.1342 28.7137 16.84 28.6354 17.1286 25.7458C17.2244 24.7822 16.8536 23.6165 16.0097 22.6956Z" fill="#EAE9E8"/>
<path d="M12.6527 26.6433C12.4006 25.6302 12.6733 24.5413 13.2402 23.6447C13.2523 23.6256 13.2657 23.606 13.28 23.5863C13.3552 23.4841 13.5284 23.5062 13.5731 23.6217C13.7393 24.0509 14.0453 24.2816 14.0453 24.2816C14.0576 23.5226 14.3326 22.8335 14.8376 22.2808C14.7247 22.1244 14.3792 21.7473 14.314 20.9558C14.3055 20.8523 14.1826 20.8038 14.1057 20.8735C13.371 21.5405 12.9676 22.4579 12.9527 23.4906C12.9527 23.4906 12.6467 23.2327 12.4805 22.753C12.4358 22.6238 12.2625 22.5991 12.1874 22.7134C12.173 22.7353 12.1597 22.7573 12.1476 22.7787C11.5807 23.781 11.308 24.9983 11.5601 26.1308C11.7934 27.1806 12.7519 27.8114 13.8115 27.9637C13.2399 27.683 12.8006 27.2385 12.6527 26.6433Z" fill="#F7E7A1"/>
<path d="M10.0955 3.72121C11.2781 2.75931 11.2755 0.959711 10.0955 0C8.91285 0.961844 8.91543 2.7615 10.0955 3.72121Z" fill="#D8553A"/>
<path d="M24.2701 11.4409C25.4528 10.479 25.4501 8.67944 24.2701 7.71973C23.7296 8.1593 23.0902 10.4812 24.2701 11.4409Z" fill="#D8553A"/>
<path d="M3.32433 12.1741C4.17663 11.4808 4.17477 10.1839 3.32433 9.49219C2.93479 9.80899 2.47388 11.4824 3.32433 12.1741Z" fill="#D8553A"/>
<path d="M18.0858 6.40361C18.9381 5.71034 18.9362 4.41342 18.0858 3.72168C17.2335 4.4149 17.2354 5.71192 18.0858 6.40361Z" fill="#D8553A"/>
<path d="M11.8077 15.6039C12.0034 13.2932 12.8858 11.2387 14.3674 9.67238C14.3524 9.55885 14.3398 9.44231 14.3299 9.32249C14.3073 9.04807 13.9814 8.91928 13.7776 9.10434C12.2337 10.5058 11.2429 12.3244 10.8779 14.3815L10.8774 14.3814C10.8503 14.5339 10.8167 14.7562 10.7955 14.9308C10.7956 14.931 10.7956 14.9311 10.7957 14.9312C10.7514 15.2957 10.7257 15.6667 10.7202 16.0437C10.7614 16.0518 11.6949 16.5316 11.8077 15.6039Z" fill="#E89528"/>
<path d="M10.7421 25.1269C10.3399 23.2279 10.6824 21.2028 11.4782 19.4482C11.3241 19.232 11.1554 18.9416 11.0305 18.5811C10.9501 18.3493 10.6393 18.305 10.5044 18.51C10.4785 18.5494 10.4544 18.5888 10.4328 18.6271C9.41526 20.4263 8.92576 22.6112 9.37824 24.644C9.73262 26.2383 11.0187 27.2946 12.5582 27.7475C11.6621 27.1526 10.9842 26.272 10.7421 25.1269Z" fill="#E8C842"/>
<path d="M13.3297 19.0758C13.4631 18.1229 13.8528 17.073 14.4664 16.1952C14.3995 15.9473 14.347 15.6673 14.3213 15.3558C14.306 15.1701 14.0854 15.0828 13.9474 15.2082C13.1257 15.9542 12.5359 16.875 12.2008 17.9113L12.1999 17.9111C12.1472 18.0739 12.0727 18.3436 12.0275 18.5565C12.0279 18.5564 12.0283 18.5564 12.0286 18.5562C11.9361 18.9906 11.8847 19.4415 11.8779 19.9056C12.6158 19.9977 13.2261 19.815 13.3297 19.0758Z" fill="#E8C842"/>
</svg>
