<svg width="32" height="33" viewBox="0 0 32 33" fill="none" xmlns="http://www.w3.org/2000/svg">
<g clip-path="url(#clip0_8_12)">
<ellipse cx="16.5" cy="16.1394" rx="11.5" ry="11.5439" fill="white"/>
<path d="M19.0625 16.6411C19.0625 18.3389 17.6914 19.7153 16 19.7153C14.3086 19.7153 12.9375 18.3389 12.9375 16.6411C12.9375 14.9432 14.3086 13.5669 16 13.5669C17.6914 13.5669 19.0625 14.9432 19.0625 16.6411Z" fill="url(#paint0_linear_8_12)"/>
<path d="M23.1621 11.2019C23.0149 10.8015 22.78 10.439 22.4749 10.1415C22.1785 9.83515 21.8176 9.59939 21.4185 9.45161C21.0947 9.32539 20.6084 9.17517 19.7126 9.13424C18.7437 9.08988 18.4531 9.08032 16 9.08032C13.5466 9.08032 13.2561 9.08964 12.2874 9.13399C11.3916 9.17517 10.905 9.32539 10.5815 9.45161C10.1824 9.59939 9.82129 9.83515 9.52515 10.1415C9.21997 10.439 8.98511 10.8012 8.83765 11.2019C8.71191 11.5269 8.56226 12.0153 8.52148 12.9145C8.47729 13.8869 8.46777 14.1786 8.46777 16.6413C8.46777 19.1038 8.47729 19.3954 8.52148 20.3681C8.56226 21.2673 8.71191 21.7555 8.83765 22.0804C8.98511 22.4811 9.21973 22.8433 9.5249 23.1409C9.82129 23.4472 10.1821 23.683 10.5813 23.8307C10.905 23.9572 11.3916 24.1074 12.2874 24.1484C13.2561 24.1927 13.5464 24.202 15.9998 24.202C18.4534 24.202 18.7439 24.1927 19.7124 24.1484C20.6082 24.1074 21.0947 23.9572 21.4185 23.8307C22.2197 23.5205 22.853 22.8848 23.1621 22.0804C23.2878 21.7555 23.4375 21.2673 23.4785 20.3681C23.5227 19.3954 23.532 19.1038 23.532 16.6413C23.532 14.1786 23.5227 13.8869 23.4785 12.9145C23.4377 12.0153 23.2881 11.5269 23.1621 11.2019V11.2019ZM16 21.3768C13.3943 21.3768 11.282 19.2567 11.282 16.6411C11.282 14.0254 13.3943 11.9053 16 11.9053C18.6055 11.9053 20.7178 14.0254 20.7178 16.6411C20.7178 19.2567 18.6055 21.3768 16 21.3768ZM20.9043 12.8248C20.2954 12.8248 19.8018 12.3292 19.8018 11.718C19.8018 11.1068 20.2954 10.6113 20.9043 10.6113C21.5132 10.6113 22.0068 11.1068 22.0068 11.718C22.0066 12.3292 21.5132 12.8248 20.9043 12.8248Z" fill="url(#paint1_linear_8_12)"/>
<path d="M16 0.580078C7.16479 0.580078 0 7.77222 0 16.6411C0 25.5101 7.16479 32.7022 16 32.7022C24.8352 32.7022 32 25.5101 32 16.6411C32 7.77222 24.8352 0.580078 16 0.580078ZM25.1321 20.4434C25.0876 21.4252 24.9321 22.0955 24.7051 22.6822C24.2278 23.921 23.2522 24.9003 22.0181 25.3795C21.4338 25.6074 20.7659 25.7632 19.7881 25.8081C18.8083 25.8529 18.4954 25.8637 16.0002 25.8637C13.5049 25.8637 13.1921 25.8529 12.2122 25.8081C11.2344 25.7632 10.5664 25.6074 9.98218 25.3795C9.3689 25.1479 8.81372 24.7849 8.35474 24.3156C7.88745 23.8551 7.52588 23.2976 7.29517 22.6822C7.06812 22.0957 6.9126 21.4252 6.86816 20.4437C6.823 19.46 6.8125 19.1458 6.8125 16.6411C6.8125 14.1365 6.823 13.8223 6.86792 12.8388C6.91235 11.8571 7.06763 11.1868 7.29468 10.6001C7.52539 9.98473 7.88721 9.42719 8.35474 8.9667C8.81348 8.49739 9.3689 8.13444 9.98193 7.90284C10.5664 7.67493 11.2341 7.51906 12.2122 7.47421C13.1919 7.42936 13.5049 7.41858 16 7.41858C18.4951 7.41858 18.8081 7.42936 19.7878 7.47446C20.7659 7.51906 21.4336 7.67493 22.0181 7.9026C22.6311 8.13419 23.1865 8.49739 23.6455 8.9667C24.1128 9.42744 24.4746 9.98473 24.7051 10.6001C24.9324 11.1868 25.0876 11.8571 25.1323 12.8388C25.177 13.8223 25.1875 14.1365 25.1875 16.6411C25.1875 19.1458 25.177 19.46 25.1321 20.4434V20.4434Z" fill="url(#paint2_linear_8_12)"/>
</g>
<defs>
<linearGradient id="paint0_linear_8_12" x1="6" y1="26.1773" x2="25.5815" y2="4.66952" gradientUnits="userSpaceOnUse">
<stop stop-color="#FFDA7B"/>
<stop offset="0.385417" stop-color="#FF6142"/>
<stop offset="0.71875" stop-color="#FF6296"/>
<stop offset="1" stop-color="#BF7CF1"/>
</linearGradient>
<linearGradient id="paint1_linear_8_12" x1="8.5" y1="24.1697" x2="25.0609" y2="8.17167" gradientUnits="userSpaceOnUse">
<stop stop-color="#FFAA65"/>
<stop offset="0.385417" stop-color="#FF6242"/>
<stop offset="0.71875" stop-color="#FF6296"/>
<stop offset="1" stop-color="#BF7CF1"/>
</linearGradient>
<linearGradient id="paint2_linear_8_12" x1="3.5" y1="27.6831" x2="29.5826" y2="5.69716" gradientUnits="userSpaceOnUse">
<stop stop-color="#FFDA7B"/>
<stop offset="0.385417" stop-color="#FF6142"/>
<stop offset="0.71875" stop-color="#FF6296"/>
<stop offset="1" stop-color="#BF7CF1"/>
</linearGradient>
<clipPath id="clip0_8_12">
<rect width="32" height="32.1221" fill="white" transform="translate(0 0.580078)"/>
</clipPath>
</defs>
</svg>
