<svg width="32" height="32" viewBox="0 0 32 32" fill="none" xmlns="http://www.w3.org/2000/svg">
<path d="M27.77 22.2825L26.3125 21.3108V12.875C26.3125 7.50469 22.1861 3.08081 16.9375 2.60556V0.9375C16.9375 0.41975 16.5177 0 16 0C15.4823 0 15.0625 0.41975 15.0625 0.9375V2.60556C9.81394 3.08081 5.6875 7.50469 5.6875 12.875V21.3108L4.23 22.2825C3.96913 22.4564 3.8125 22.749 3.8125 23.0625V26.8125C3.8125 27.3302 4.23225 27.75 4.75 27.75H10.9297C11.3698 30.1642 13.4751 32 16 32C18.5249 32 20.6303 30.1642 21.0703 27.75H27.25C27.7677 27.75 28.1875 27.3302 28.1875 26.8125V23.0625C28.1875 22.749 28.0308 22.4563 27.77 22.2825ZM16 30.125C14.5132 30.125 13.2541 29.1213 12.8526 27.75H19.1475C18.7459 29.1213 17.4868 30.125 16 30.125ZM26.3125 25.875C25.4424 25.875 6.71163 25.875 5.6875 25.875V23.5642L7.145 22.5925C7.40581 22.4187 7.5625 22.1259 7.5625 21.8125V12.875C7.5625 8.22256 11.3476 4.4375 16 4.4375C20.6524 4.4375 24.4375 8.22256 24.4375 12.875V21.8125C24.4375 22.126 24.5942 22.4187 24.855 22.5925L26.3125 23.5642V25.875Z" fill="url(#paint0_linear_8_380)"/>
<circle cx="28.5" cy="3.5" r="3.5" fill="#ED3838"/>
<defs>
<linearGradient id="paint0_linear_8_380" x1="-3" y1="-6" x2="30" y2="31.5" gradientUnits="userSpaceOnUse">
<stop stop-color="#95BBFE"/>
<stop offset="1" stop-color="#9A22F7"/>
</linearGradient>
</defs>
</svg>
